<svg xmlns="http://www.w3.org/2000/svg" width="140" height="148" viewBox="0 0 140 148"><path fill="#1f1f1d" d="M0 0h140v148H0z"/><g transform="matrix(.4 0 0 .4 -118 -167)"><defs><clipPath id="058b6e5411"><path d="M401 569h124v152H401Zm0 0"/></clipPath><clipPath id="a697200a04"><path d="m426.934 475.75 110.66 15.559-34.352 244.347-110.66-15.558Zm0 0"/></clipPath><clipPath id="e3936bcf0c"><path d="m426.934 475.75 110.66 15.559-34.352 244.347-110.66-15.558Zm0 0"/></clipPath><clipPath id="880d9e9961"><path d="M450 488h70v128h-70Zm0 0"/></clipPath><clipPath id="1733294fdd"><path d="m426.934 475.75 110.66 15.559-34.352 244.347-110.66-15.558Zm0 0"/></clipPath><clipPath id="93daf81bac"><path d="m426.934 475.75 110.66 15.559-34.352 244.347-110.66-15.558Zm0 0"/></clipPath></defs><path fill="#f4f2ef" d="M440.861 584.228H368.8l.281-1.719q7.156 0 10.438-2.718c2.382-2 3.578-11.29 3.578-27.875v-35.47q0-15.293-.938-20.937-.925-5.654-2.64-7.093-3.283-2.72-10.438-2.72l-.281-1.562h66.781v20.578l-1.719-.28q-.002-9.576-10.093-13.298-10.082-3.716-30.813-3.718v45.046q13.734.001 19.734-1.421 6.012-1.435 7.72-4.36 1.717-2.934 1.718-9.812l1.578-.282v34.75l-1.578-.28q0-7.016-1.719-9.876-1.705-2.859-7.719-4.219-6-1.359-19.734-1.359v18.453q0 15.157 1.078 20.172 1.078 5.003 4.797 6.719 40.313 0 40.313-17.172l1.718-.281Zm0 0"/><g clip-path="url(#058b6e5411)"><g clip-path="url(#a697200a04)"><g clip-path="url(#e3936bcf0c)"><path fill="#7c4f25" d="M458.594 669.266c-3.996-.86-8.11-1.586-12.18-1.91-4.02-.317-7.992-.282-11.973.5a29 29 0 0 0-2.984.769c-.937.316-1.879.68-2.781 1.098-1.754.843-3.488 1.89-5.196 3.086-1.609 1.214-3.187 2.578-4.593 4.117-1.055 1.14-1.766 2.676-2.957 3.75-.68.597-1.5.781-2.383 1.054-.52.172-3.082.754-3.254 1.278 4.18-10.672 9.602-19.977 13.781-30.645.531-1.316 1.016-2.636 1.59-3.894.621-1.25 1.195-2.508 1.824-3.809 1.203-2.558 2.633-4.984 4.11-7.36 1.488-2.468 3.148-4.76 4.902-6.995 1.883-2.461 3.488-5.063 6.473-6.18a73 73 0 0 1 5.14-1.66c1.082-.293 2.137-.738 3.254-.93 4.578-.797 8.781.688 13.258 1.664 2.5.551 5.105.371 7.66.184 5.457-.371 10.797-1.656 16.203-3.426 2.7-.86 5.348-2.074 8.008-3.336 2.664-1.312 5.277-2.629 7.899-4.344.605-.41.359-1.14-.106-1.355-.469-.215-1.57.226-2.68.715-1.152.433-2.277 1.02-2.832 1.09-2.449.5-4.902.648-7.324.605-4.871.063-9.61-.805-14.394-.633-2.34.067-4.664.387-6.868.871a48 48 0 0 0-6.648 1.79c-2.137.742-4.148 1.648-6.18 2.702-2.082 1.047-3.586 2.223-5.96 2.536-2.786.402-5.5 1.359-8.13 2.425l1.375-1.293c6.778-6.238 14.684-10.976 22.325-15.953q2.871-1.906 5.742-3.804c1.86-1.227 3.758-1.309 5.941-1.696 2.239-.379 4.48-.808 6.715-1.187 1.125-.238 2.297-.473 3.422-.711a84 84 0 0 0 3.352-.918c2.535-.734 5.093-1.664 7.62-2.695 2.52-.985 4.891-2.34 7.32-3.735 1.192-.722 2.435-1.441 3.634-2.215 1.207-.824 2.414-1.644 3.578-2.523 2.289-1.809 4.457-3.836 6.613-6.113 1.05-1.14 2.207-2.317 3.227-3.563.476-.578 1.605-2.601-.047-2.137-4.645 1.282-9.285 2.215-13.707 3.329-4.508 1.004-8.836 2.18-13.059 3.62-2.664.966-5.027 2.266-7.449 3.614-2.422 1.344-4.625 2.922-6.656 4.668-2.047 1.844-4.18 3.629-6.008 5.703-1.86 1.918-2.98 4.242-5.426 5.434a89 89 0 0 0-8.27 4.84c-5.652 3.519-10.886 7.593-16.136 11.765-1.91 1.617-3.824 3.23-5.613 5.012.695-2.133.906-4.336.867-6.524a98 98 0 0 0-.153-3.492c-.128-1.902-.617-2.664.782-4.156a38 38 0 0 0 3.797-4.77c2.207-3.359 3.867-7.046 4.988-10.804 2.101-7.54-.063-16.473 3.937-22.36.313-.453-.39-1.097-.75-.652-1.68 1.7-3.515 3.477-5.421 5.39-1.954 1.907-3.735 3.989-4.91 6.352-2.274 4.54-1.86 10.051-2.93 15.207-1.051 4.664-1.489 9.164-1.032 14.04.54 5.331.434 11.366-3.07 15.835-4.418 5.676-8.855 11.153-11.793 17.93-.512 1.168-1.015 2.289-1.527 3.457s-.926 2.348-1.383 3.473c-.918 2.3-1.836 4.601-2.762 6.953.242-.66.102-1.77-.187-2.903-.239-1.125-.582-2.214-.735-2.882-.597-2.461-1.93-4.633-1.46-7.246.562-2.598 1.132-5.247 1.566-7.961.945-5.325 1.566-10.79 1.422-16.118-.114-3.785-1.012-7.28-1.95-10.836-.804-3.09-1.042-6.347-.796-9.484.125-1.621.406-3.266.738-4.906.129-.578 1.234-3.844-.527-2.95-2.72 1.352-4.786 3.344-6.29 5.563-1.554 2.258-2.64 5.031-3.32 7.766-.683 2.73-.918 5.82-.926 8.695-.011 1.488.036 2.93.133 4.332q.14 2.18.45 4.23c.863 6.915 3.542 13.243 5.953 19.383 1.293 3.16 2.535 6.309 3.48 9.47.426 1.546.902 3.1 1.223 4.683.394 1.789.066 3.43-.551 4.98-.613 1.55-1.383 3.13-2.149 4.707-.492 1.024-1.03 2.035-1.57 3.051-.539 1.016-.98 2.047-1.52 3.062l-1.433 3.122c-.488 1.02-.98 2.043-1.379 3.128-5.246 12.602-7.914 26.31-9.348 40.739-.144 1.02 1.247 1.02 1.387-.004.309-1.84.516-3.649.719-5.453.156-1.813.254-3.582.55-5.328.5-3.551 1.048-7.094 1.825-10.504l.516-2.606s.609-2.594.66-2.586l1.695-5.02c.484-1.32.684-2.382 1.75-3.273.734-.64 2.297-1.86 3.234-2.175 3.434-1.153 6.844-1.766 10.313-2.465 3.465-.657 6.75-1.434 9.71-2.754 2.02-.953 4.13-1.848 6.141-2.754 2.06-.902 4.067-1.762 6.247-2.445 2.343-.813 4.796-1.309 7.378-1.692 1.313-.164 2.672-.32 4.02-.379.402-.039 1.625.082 1.895-.078-.09-.41.144-1.023-.676-1.187m39.332-55.07a96 96 0 0 1-6.383 3.07c-2.156.886-4.3 1.675-6.473 2.312-.882-.422-1.851-.61-2.789-.988-.554-.278-1.113-.55-1.613-.871 2.863-.242 5.738-.582 8.539-1.13a97 97 0 0 0 8.566-2.366Zm-18.23-.134c2.48 0 4.972.25 7.433.399 2.457.148 4.922.246 7.422.101a78 78 0 0 1-6.406 1.481c-2.13.344-4.25.594-6.368.84A382 382 0 0 1 469.273 618c1.04-1.043 2.032-2.094 2.895-3.312 2.484-.395 5-.633 7.527-.625m-10.923 3.97c-3.863.3-7.554.82-11.316 1.484a45 45 0 0 1 14.004-4.727c-.938 1.008-1.871 2.016-2.676 3.145-.004.046-.004.046-.012.097m-12.12 1.913c3.683-.472 7.226-.965 10.898-1.343 3.668-.329 7.328-.606 11.07-.774.45-.035.848-.031 1.25-.074 1.059.945 2.524 1.793 3.961 2.144-2.738.805-5.406 1.422-8.133 1.786-2.73.359-5.437.574-8.113.543-4.11-.032-7.73-1.434-11.684-1.891Zm42.269-26.937a71 71 0 0 1-7.274 2.699 52.4 52.4 0 0 1-7.253 1.856c-1.832.34-3.743.515-5.657.742 3.524-1.438 7.098-2.871 10.512-4.575 3.418-1.75 7.047-3.222 10.543-5.16 1.144-.039 2.3-.125 3.492-.156 1.293-.016 2.57.066 3.863.047-2.71 1.652-5.382 3.363-8.226 4.547m15.383-9.59c-1.922 1.664-4.051 3.05-6.075 4.402-1.41-.195-2.918-.062-4.312-.011a28 28 0 0 0-2.953.183c1.5-.781 3.047-1.558 4.601-2.379 1.547-.777 3.098-1.597 4.75-2.406 1.602-.816 3.164-1.691 4.774-2.555 1.61-.863 3.273-1.77 4.98-2.62-1.953 1.905-3.851 3.773-5.765 5.386m-6.301-3.512c4.094-.914 8.191-1.824 12.285-2.738-5.383 2.664-10.277 5.398-15.328 7.812a113 113 0 0 0-7.223 3.747c-2.402 1.199-4.836 2.296-7.18 3.453 1.973-2.746 4.153-5.563 5.5-8.797a1.1 1.1 0 0 0 .32-.153c3.579-1.48 7.587-2.457 11.626-3.324m-12.84 3.848c-.504.77-.926 1.652-1.398 2.531-.461.828-.98 1.695-1.446 2.524-1.023 1.64-2.136 3.218-3.773 4.28-1.758 1.192-3.844 1.938-5.793 2.755-2.012.906-4.3 2.37-6.399 2.82-.304.055-.617.16-.93.266 6.016-6.098 11.454-11.63 19.74-15.176m-47.762 12.379a65 65 0 0 1 2.332-1.41c-1.734 4.566-4.316 8.816-7.703 12.804 1.395-3.226 2.41-6.554 3.223-9.863.754-.437 1.433-1.039 2.148-1.531m4.461-11.625c-.168 3.3-.765 6.488-1.875 9.457-1.011.504-1.941 1.117-2.87 1.73-.548.367-1.2.774-1.755 1.192.434-2.024.914-4.04 1.348-6.059.75-3.219 1.574-6.277 2.617-9.105.996-2.836 2.41-5.512 3.719-8.106-.77 3.363-.996 7.098-1.184 10.89m-4.93-5.504c1.801-1.531 3.669-3.152 5.192-4.824a29.7 29.7 0 0 0-3.707 7.316 8.2 8.2 0 0 0-1.484-2.492m-3.417 11.621c.066-4.355 1.039-7.738 3.097-11.117.418.554.746 1.047 1 1.726.215.575.285 1.13.356 1.688-1.121 3.758-2.094 7.836-2.973 11.98-.879 4.141-1.855 8.266-3.223 11.993-.086-1.5-.125-2.993.012-4.313.434-4.152 1.656-7.898 1.73-11.957M416.5 643.809c-1.035-2.871.21-7.508.355-10.66.075-1.579 0-3.176-.175-4.739q.757-1.155 1.39-2.48c.47-.875.89-1.762 1.223-2.707.05 6.703-1.414 13.937-2.793 20.586m2.16-27.02c.36 1.688.516 3.395.617 5.145-.675 1.988-1.68 3.828-2.648 5.777-.297-2.125-.703-4.168-1.117-6.16a40 40 0 0 1-.969-11.442c.227-3.738 1.004-7.496 2.113-11.16-.32 2.98-.125 5.836.344 8.828.383 2.93 1.016 5.844 1.66 9.012m-6.156-16.539c1.21-1.91 2.742-3.629 4.77-4.98l-.137.625c-1.364 3.328-2.438 6.746-2.992 10.34a39 39 0 0 0-.504 5.335 32.4 32.4 0 0 0 .285 5.395c-1.192-1.406-2.328-2.856-3.227-4.57-.851-1.707-.937-3.555-.867-5.477.531-2.356 1.398-4.664 2.672-6.668m-3.227 9.219c.465 3.386 2.094 6.246 4.711 8.449.024.2.043.402.07.555.965 5.492 2.27 10.683 2.11 16.414-.031 2.324-.844 4.937-.668 7.195-1.074-2.582-2.148-5.164-3.07-7.773-2.426-6.391-4.461-16.246-3.153-24.84m32.98 63.105c-1.046-.297-2.179-.355-3.198-.5-1.176-.117-2.446-.246-3.606-.11 2.442-1.144 5.188-2 8.024-2.394 2.984-.422 6.195.028 9.332.274-3.747.562-7.102 1.48-10.551 2.73m-7.445-3.476c3.125-.703 6.329-.899 9.528-.743a80 80 0 0 1 4.855.383c1.66.184 3.309.465 4.907.739-3.16-.098-6.426-.504-9.508-.442-2.938.082-5.797 1.02-8.387 2.14-2.797 1.196-5.23 2.641-7.914 4.098a11.7 11.7 0 0 0 3.098-5.12 25 25 0 0 1 3.421-1.055m-7.816 6.933a59 59 0 0 1-4.387 2.262c-1.488.73-3.12 1.394-4.793 2.004.852-1.121 1.883-2.117 2.868-3.117 1.035-.996 2.101-1.887 3.218-2.774 2.223-1.718 4.696-3.058 7.22-4.093-.45 1.078-1.087 2.082-1.759 2.976-.726.941-1.488 1.777-2.265 2.707-.098-.012-.102.035-.102.035m7.973-.265c-.59.312-1.223.57-1.903.824-.632.258-1.261.515-1.886.722-1.305.465-2.645.82-4.028 1.122-2.77.652-5.718 1.18-8.539 1.824 2.688-.762 5.235-1.942 7.598-3.246 1.18-.625 2.27-1.317 3.457-1.992 1.129-.637 2.316-1.313 3.437-1.899.649-.355 1.293-.71 1.98-1.012 1.161.215 2.36.137 3.536.25.977.09 1.945.274 2.918.41-2.11.895-4.379 1.864-6.57 2.997m0 0"/></g></g></g><g clip-path="url(#880d9e9961)"><g clip-path="url(#1733294fdd)"><g clip-path="url(#93daf81bac)"><path fill="#7c4f25" d="M467.25 598.523c-1.676 2.047-3.262 4.157-4.98 6.145-3.34 3.996-6.895 7.758-10.961 10.957-.555.418-1.293-.332-.739-.75 7.953-6.121 14.239-14.164 19.875-22.496 1.93-2.805 3.774-5.668 5.293-8.73 1.168-2.313 2.54-4.649 1.664-7.254-.382-1.145-.879-2.207-1.422-3.274-1.132-2.191-2.492-4.168-3.953-6.11-2.933-3.835-6.136-7.507-8.59-11.573-1.937-3.149-3.96-6.754-4.96-10.22-1-3.46-1.043-6.69 1.23-9.445.719-.89 1.316 1.223 1.469 1.543.406 1 .808 2 1.32 2.965a24.7 24.7 0 0 0 3.852 5.399c1.816 1.894 3.523 3.87 4.785 6.18 1.765 3.324 2.8 6.89 3.37 10.59.282 1.874.419 3.73.5 5.624.044 1.793 1.34 3.164 2.095 4.856.418.902 1.597 3.101 1.257 4.097 1.047-3.574 1.653-7.16 2.211-10.8.418-2.618 1.02-5.114 1.618-7.606.59-2.45 1.238-4.933 1.836-7.43.812-4.004-1.274-7.867-3.665-10.98-2.226-2.84-3.77-5.637-5.12-8.703a24 24 0 0 0-1.294-2.465c-.48-.809-1.015-1.578-1.496-2.39-.968-1.575-1.84-3.137-2.207-4.774-.351-1.734-.355-3.473-.218-5.14.136-1.665.511-3.298.425-4.798 0-.347.68-.253.73.102.423 2.289 1.794 4.516 3.509 6.789 1.714 2.277 3.718 4.59 4.703 7.11.984 2.519 1.695 5.245 1.75 8.03 0 1.391-.14 2.758-.375 4.067-.239 1.352.36 1.684 1.195 2.793.5.668.996 1.383 1.434 2.137.851 1.36 1.535 2.843 1.808 4.422.582-1.657 1.215-3.352 1.797-5.004.805-2.219 1.711-4.422 2.469-6.649.762-2.222 1.66-4.379 2.5-6.492a49 49 0 0 1 2.64-6.074c.79-1.723.34-3.473.489-5.238.164-1.86.324-3.723.578-5.524.695-3.523 1.754-6.844 3.875-9.918 1.527-2.414 3.433-4.676 5.59-6.949 1.957-2.305 4.164-4.574 6.281-6.953.762-.836.98.433 1.016.887.015.945-.07 1.921-.153 2.855-.082.93-.164 1.86-.285 2.734l-.191 1.364-.336 1.34a98 98 0 0 1-1.645 5.324c-.59 1.75-1.465 3.363-2.336 4.976-.879 1.664-1.789 3.223-2.933 4.649a68 68 0 0 1-6.278 7.25c-1.043 1.093-2.152 1.93-2.558 3.41-.563 1.508-1.067 2.973-1.625 4.48-1.02 3.032-2.473 5.953-3.64 8.961-.606 1.504-1.313 2.992-1.872 4.5-.605 1.5-1.125 3.063-1.691 4.621l-.426 1.278c.648-.75 1.355-1.543 2.098-2.235a18 18 0 0 1 2.273-2.058c1.387-1.047 1.871-2.367 2.82-3.82a36 36 0 0 1 2.656-4.09c2.106-2.63 4.247-5.157 7.028-7.293 2.777-2.141 5.851-3.891 8.742-6.11a23.8 23.8 0 0 0 3.86-3.824c.542-.668 1.613-3.344 2.34-3.586.363-.101.925.129.753.649-2.676 8.453-7.488 16.207-13.738 21.527-1.512 1.226-3.129 2.484-4.906 3.129-3.149 1.242-6.461 1.867-9.051 4.082-.617.508-1.16 1.176-1.735 1.742-.921.91-1.89 1.816-2.765 2.734-1.621 1.657-1.684 3.88-2.285 6.028a83 83 0 0 0-1.395 6.05c-.91 3.989-1.586 8.11-2.41 12.208-1.684 8.445-5.945 15.828-10.895 22.82.207-.418-1.94 2.504-2.605 3.351m40.719-69.507c.449-.036.906-.118 1.367-.203.715-.149 1.36-.504 2.082-.7 1.937-2.851 3.707-5.926 4.965-9.218l-.063.09c-.582.96-1.164 1.917-1.785 2.824a52 52 0 0 1-2.05 2.586c-1.47 1.628-2.883 3.214-4.516 4.62m-6.465 1.87c-.004 1.09-.063 2.223-.262 3.286 2.317-2.004 4.727-3.996 7.02-6.203 2.199-2.223 4.465-4.582 6.383-7.285-2.739 2.539-6.063 4.304-8.91 6.582a36 36 0 0 0-4.231 3.62m-6.973 9.036c2.051-1.89 4.145-3.73 6.426-5.492 0 0-.043-.055-.035-.106.039-.984.094-2.07.23-3.043a38 38 0 0 0-1.824 2.028c-.637.652-1.183 1.37-1.777 2.078-1.153 1.476-2.106 2.98-3.02 4.535m-.648 1.101c2.746-1.203 5.504-1.757 8.125-3.472a93 93 0 0 0 2.48-1.781c.785-.633 1.532-1.372 2.282-2.11 1.449-1.484 2.91-3.062 4.148-4.824-1.012.504-2.316.617-3.395.516-.23.214-.507.425-.726.593-4.215 3.524-8.367 6.957-12.64 10.52Zm14.953-39.359c-.719.547-1.484 1.031-2.164 1.633-.664.5-1.281 1.008-1.945 1.512-2.207 4.746-4.348 9.406-7.063 13.882.973-.902 2.086-1.789 2.871-2.77 2.203-2.616 4.336-5.44 5.871-8.597.989-1.746 1.852-3.656 2.43-5.66m2.258-10.047c-2.145 4.313-4.207 8.387-5.969 12.453.563-.468 1.07-.89 1.625-1.308.734-.64 1.523-1.325 2.39-1.848a52 52 0 0 0 1.29-4.578c.265-1.55.437-3.113.664-4.719m-11.043 12.235c.746 2.09 1.105 4.472 1.332 6.734.77-1.578 1.437-3.172 2.21-4.797l1.184-2.414c.407-.785.727-1.633 1.086-2.426a71 71 0 0 1 2.418-4.867c.778-1.625 1.555-3.3 2.485-4.957-3.77 4.23-7.985 8.102-10.633 12.492-.016.098-.028.192-.082.235m-3.551 16.066c.95-1.106 1.64-2.844 2.277-4.195.621-1.25 1.446-2.524 1.887-3.899a5.9 5.9 0 0 0 .258-1.847c-.008-.649-.168-1.266-.274-1.926-.316-1.281-.734-2.531-.918-3.7-.726 1.29-1.3 2.547-1.68 3.833-.378 1.285-.804 2.562-1.046 3.918-.234 1.308-.375 2.675-.524 4.093-.19 1.36-.293 2.785-.449 4.25.172-.172.34-.297.469-.527m-25.008-5.203c.375 1.937 1.004 3.812 1.774 5.754.765 1.941 1.527 3.933 2.566 6.066.61 1.324 1.266 2.656 1.879 3.934.11-.434.324-.899.476-1.274.29-.652.54-1.363.918-1.953a21 21 0 0 0-3.168-6.05c-1.718-2.227-3.402-4.348-4.445-6.477m-.902 5.031c.672.145 1.418.496 2 .926-.781-1.844-1.277-3.602-1.434-5.309-.101 1.422-.265 2.938-.566 4.383m9.004 17.781c-.707-2.73-1.762-5.457-3.02-8.16-1.304-2.715-2.62-5.328-3.605-7.847-.309-.293-.567-.579-.977-.832a8 8 0 0 0-1.347-.637c.324 2.625 1.261 4.789 3.183 7.34 1.805 2.34 2.574 4.976 4.004 7.507.465.907 1.094 1.739 1.762 2.63m.453.309c.246-1.75.34-3.473.223-5.125-.106-1.7-.473-3.34-.989-4.95-.226.563-.5 1.071-.726 1.634-.22.515-.352 1.093-.621 1.601.886 2.156 1.656 4.445 2.113 6.84m-19.074 1.633c1.308 4.797 3.285 9.093 6.765 13.597a37 37 0 0 1 2.516 3.63c.191-1.364.285-2.739.18-4.09-.547-1.07-1.2-2.055-1.954-3.055-2.918-3.582-5.687-6.453-7.507-10.082m-1.473 5.894c.586 1.125 1.227 2.207 2.348 3.059 1.117.851 2.312 1.515 3.511 2.18-2.738-4.157-4.457-8.512-5.168-12.977l-.148-.367c-1.473 2.37-1.418 5.156-.543 8.105m13.34 20.82c-.582-1.519-.531-3.296-1.063-4.812-1.3-3.8-3.52-6.691-5.84-9.945a1.3 1.3 0 0 1-.203-.324c-2.406-.887-4.332-2.348-5.71-4.176 1.894 5.222 5.976 10.758 9.003 14.605 1.18 1.504 2.496 3.078 3.813 4.653m1.043 1.04c-.274-4.75-1.035-9.57-3.067-13.82a14 14 0 0 1-.324 3.722c.508.965.969 1.922 1.367 2.969.692 2.133.692 5.304 2.024 7.129m0 0"/></g></g></g><path fill="#f4f2ef" d="M561.393 663.415v33.969q0 14.672.89 20.016.891 5.344 2.531 6.703c2.102 1.742 5.438 2.61 10 2.61l.282 1.64h-36.72l.267-1.64q6.716.002 9.875-2.47c1.726-1.375 2.734-5.847 3.015-13.421q.265-4.53.266-13.438v-57.937l-38.36 87.53-39.593-74.109v44.25q-.002 13.705 1.297 19.797 1.312 6.095 4.187 7.953 2.872 1.845 9.594 1.844l.265 1.64h-33.703l.282-1.64q5.063 0 7.593-.75c1.696-.508 3.14-1.86 4.328-4.047q1.782-3.293 2.25-8.765c.32-3.657.485-9 .485-16.032v-33.562q-.002-10.547-.485-16.031-.468-5.485-2.25-8.766c-1.187-2.195-2.632-3.547-4.328-4.047q-2.53-.75-7.593-.75l-.282-1.515h18.36l42.328 79.875 34.937-79.875h23.985l-.282 1.515c-4.562 0-7.898.867-10 2.594q-3.42 2.895-3.421 26.86m0 0"/></g></svg>